# xmcd CD database file
#
# Track frame offsets:
#	150
#	18114
#	38140
#	84650
#	96455
#	105894
#	121477
#	147951
#	170939
#	184638
#	203639
#	221152
#	231650
#	252905
#
# Disc length: 3561 seconds
#
# Revision: 0
# Processed by: cddbd v1.5.2PL0 Copyright (c) Steve Scherf et al.
# Submitted via: CDex 1.70beta2
#
DISCID=c70de70e
DTITLE=Jacobasch u. von Nordenskjöld - Double Wood
DYEAR=2006
DGENRE=Jazz
TTITLE0=Tango Baritoso
TTITLE1=Expiration
TTITLE2=Long Journey
TTITLE3=First Sketch
TTITLE4=Narpos
TTITLE5=Dancing Cat
TTITLE6=Round Midnight
TTITLE7=Fernweh
TTITLE8=Acano Mlada Nevesto
TTITLE9=Nuschas Song
TTITLE10=Cellolitis con Mumpits
TTITLE11=Confutation 1
TTITLE12=Novemberabend
TTITLE13=Woodworm's Dream
EXTD=YEAR: 2006
EXTT0=
EXTT1=
EXTT2=
EXTT3=
EXTT4=
EXTT5=
EXTT6=
EXTT7=
EXTT8=
EXTT9=
EXTT10=
EXTT11=
EXTT12=
EXTT13=
PLAYORDER=
